<?xml version="1.0" encoding="UTF-8" standalone="no"?>
<svg
   viewBox="0 0 1263.04 281.08"
   version="1.1"
   id="svg126"
   sodipodi:docname="logo_white.svg"
   inkscape:version="1.1 (c68e22c387, 2021-05-23)"
   xmlns:inkscape="http://www.inkscape.org/namespaces/inkscape"
   xmlns:sodipodi="http://sodipodi.sourceforge.net/DTD/sodipodi-0.dtd"
   xmlns="http://www.w3.org/2000/svg"
   xmlns:svg="http://www.w3.org/2000/svg">
  <sodipodi:namedview
     id="namedview128"
     pagecolor="#ffffff"
     bordercolor="#666666"
     borderopacity="1.0"
     inkscape:pageshadow="2"
     inkscape:pageopacity="0.0"
     inkscape:pagecheckerboard="0"
     showgrid="false"
     inkscape:zoom="0.83766149"
     inkscape:cx="630.92312"
     inkscape:cy="140.27146"
     inkscape:window-width="1920"
     inkscape:window-height="1017"
     inkscape:window-x="-8"
     inkscape:window-y="-8"
     inkscape:window-maximized="1"
     inkscape:current-layer="g120" />
  <defs
     id="defs4">
    <style
       id="style2">
      .cls-1 {
        isolation: isolate;
      }

      .cls-2 {
        fill: #0063b5;
      }

      .cls-3 {
        fill: #3196db;
      }

      .cls-4 {
        fill: #29dcef;
      }

      .cls-5 {
        fill: #ea8928;
      }

      .cls-6 {
        fill: #0ecc8d;
      }

      .cls-7, .cls-8 {
        fill: #fff;
      }

      .cls-7 {
        opacity: 0.72;
        mix-blend-mode: lighten;
      }
    </style>
  </defs>
  <g
     class="cls-1"
     id="g124">
    <g
       id="Layer_2"
       data-name="Layer 2">
      <g
         id="Calque_1"
         data-name="Calque 1">
        <g
           id="g120">
          <g
             id="g98">
            <g
               id="g10">
              <ellipse
                 class="cls-2"
                 cx="167.07"
                 cy="220.23"
                 rx="53.85"
                 ry="113.69"
                 transform="matrix(0.28, -0.96, 0.96, 0.28, -91.4, 318.25)"
                 id="ellipse6" />
              <path
                 d="M122.48,170.53c17.68,0,37.27,3,56.66,8.73,27.58,8.13,51.87,20.72,68.39,35.47,14.13,12.62,20.66,25.19,17.92,34.49-3.71,12.59-24.82,20.72-53.79,20.72-17.68,0-37.27-3-56.66-8.73-27.59-8.13-51.87-20.72-68.39-35.47C72.48,213.12,66,200.55,68.69,191.25c3.71-12.59,24.82-20.72,53.79-20.72h0m0-11.14c-33.62,0-59,10.19-64.47,28.71-8.41,28.53,33.61,66,93.84,83.79,21.12,6.22,41.66,9.19,59.81,9.19,33.62,0,59-10.19,64.47-28.71,8.4-28.53-33.61-66-93.84-83.79-21.12-6.22-41.66-9.19-59.81-9.19Z"
                 id="path8" />
            </g>
            <g
               id="g16">
              <ellipse
                 class="cls-2"
                 cx="174.72"
                 cy="194.27"
                 rx="53.85"
                 ry="181.44"
                 transform="translate(-61.01 306.96) rotate(-73.58)"
                 id="ellipse12" />
              <path
                 d="M62.91,132.62c34.63,0,78.63,7.34,123.88,20.68,45.49,13.4,86.58,31.17,115.7,50,13.39,8.67,23.69,17.32,29.81,25,4.6,5.78,6.71,10.91,5.78,14.06s-5.53,6.34-12.61,8.71c-9.39,3.14-22.86,4.81-38.94,4.81-34.63,0-78.63-7.35-123.89-20.68-45.48-13.4-86.57-31.18-115.7-50.05-13.38-8.68-23.69-17.32-29.8-25-4.61-5.79-6.71-10.91-5.79-14.06s5.53-6.35,12.61-8.72c9.39-3.14,22.86-4.8,38.95-4.8h0m0-11.13c-34.52,0-58,7.17-62.24,21.5-8.4,28.53,62.71,74.62,158.83,102.94,47.83,14.09,92.84,21.13,127,21.13,34.52,0,58-7.18,62.23-21.51,8.41-28.53-62.7-74.61-158.82-102.93-47.83-14.1-92.84-21.13-127-21.13Z"
                 id="path14" />
            </g>
            <path
               class="cls-3"
               d="M166.28,222.91C85.62,199.14,24,161.49,15.37,141.54a10.29,10.29,0,0,0-3.88,4.22c-.05.13-.1.25-.14.38-.92,3.15,1.18,8.27,5.79,14.06,6.11,7.68,16.42,16.32,29.8,25,29.13,18.87,70.22,36.65,115.7,50.05,45.26,13.33,89.26,20.68,123.89,20.68,16.08,0,29.55-1.67,38.94-4.81,7.08-2.37,11.68-5.54,12.61-8.71a3.38,3.38,0,0,0,.09-.41,10.15,10.15,0,0,0-.94-5.66C319.19,248.44,246.94,246.67,166.28,222.91Z"
               id="path18" />
            <g
               id="g24">
              <path
                 class="cls-4"
                 d="M209.37,76.66C156.9,61.2,102.57,88.7,88,138.08c-.33,1.1-.62,2.2-.9,3.3-.21.82-.4,1.64-.58,2.45-.58,13.49,37.74,35.58,88.18,50.44s94.62,17.07,101.44,5.43q.43-1.17.84-2.37c.36-1.08.71-2.17,1-3.26C292.59,144.68,261.84,92.12,209.37,76.66Z"
                 id="path20" />
              <path
                 d="M179.75,83.49a93.46,93.46,0,0,1,26.47,3.85,90.56,90.56,0,0,1,53,40.92c11.4,19.5,14.29,41.75,8.13,62.66-.25.83-.53,1.71-.88,2.77-1.58.74-6.22,2.31-17.19,2.31-18.63,0-44.67-4.52-71.43-12.41-21.68-6.38-42.07-14.49-57.42-22.81s-21-14.29-22.51-16.72c.28-1.1.52-2,.77-2.83A77.86,77.86,0,0,1,129,99.29a88.81,88.81,0,0,1,50.76-15.8m0-11.13C137.81,72.36,99.82,98,88,138.08c-.33,1.1-.62,2.2-.9,3.3-.21.82-.4,1.64-.58,2.45-.58,13.49,37.74,35.58,88.18,50.44,28.84,8.5,55.64,12.86,74.57,12.86,14.18,0,24-2.44,26.87-7.43q.43-1.17.84-2.37c.36-1.08.71-2.17,1-3.26,14.55-49.39-16.2-101.95-68.67-117.41a104.63,104.63,0,0,0-29.62-4.3Z"
                 id="path22" />
            </g>
            <g
               id="g30">
              <path
                 class="cls-5"
                 d="M213.3,193.29a82.56,82.56,0,0,0,6.55-15.9c9.45-32.09-7-65.21-21.66-69.52s-46.44,14.58-55.9,46.67A82.88,82.88,0,0,0,139,171.37c10.44,5.54,22.83,10.14,36.34,14.12S201.47,192.36,213.3,193.29Z"
                 id="path26" />
              <path
                 d="M195,108.52a9.17,9.17,0,0,1,2.51.3c4.66,1.37,12.24,9.94,17.14,23.13,3.38,9.11,8.14,27.53,1.95,48.51a86.89,86.89,0,0,1-3.94,10.8c-10.58-1.41-22.54-4.13-37-8.38A253.8,253.8,0,0,1,140,169.78a102.71,102.71,0,0,1,2.69-11.12,77.81,77.81,0,0,1,24.61-37.06c11.51-9.65,22.15-13.08,27.76-13.08m0-11.13c-19.54,0-52.54,22.43-63.05,58.13a101,101,0,0,0-4.07,20.69c12.83,6.8,28.06,12.46,44.66,17.35s32.15,8.44,46.7,9.59a101.06,101.06,0,0,0,8-19.54c11.62-39.45-8.6-80.16-26.62-85.47a20.24,20.24,0,0,0-5.66-.75Z"
                 id="path28" />
            </g>
            <g
               id="g46">
              <path
                 d="M224.8,91l-4.4-5.33c-.14-4.36,9.41-24.17,31.83-30.59l3.06,10.7a37.44,37.44,0,0,0-23.9,20.84c0-.08-1.18,1.55-2.36-.44l-3-.64Z"
                 id="path32" />
              <g
                 id="g38">
                <path
                   class="cls-6"
                   d="M246.4,62.2S302.65,43.79,324.15,94C274.14,115.91,244.64,80.49,246.4,62.2Z"
                   id="path34" />
                <path
                   d="M293.83,106.54A57.26,57.26,0,0,1,259.9,95.86c-12.49-9-20.14-22.79-19-34.2a5.55,5.55,0,0,1,3.81-4.75,88.38,88.38,0,0,1,33.1-3.18c16.77,1.68,39.32,9.65,51.49,38.09a5.56,5.56,0,0,1-2.88,7.29C314,104.53,303.13,106.54,293.83,106.54Zm-41.7-40.09c1.08,6.19,5.82,14.25,14.3,20.4a46.26,46.26,0,0,0,27.44,8.52,66.22,66.22,0,0,0,22.69-4.31C308.26,75.55,295,66.74,277,64.84A79,79,0,0,0,252.13,66.45Z"
                   id="path36" />
              </g>
              <g
                 id="g44">
                <path
                   class="cls-6"
                   d="M243.67,61.39S210,35.27,239.34,5.57C273.4,26.89,257.8,56.11,243.67,61.39Z"
                   id="path40" />
                <path
                   d="M243.67,67a5.55,5.55,0,0,1-3.41-1.17c-.7-.54-17.18-13.52-18.44-32.52-.73-11.14,3.83-21.78,13.57-31.62a5.57,5.57,0,0,1,6.91-.8c21.92,13.73,23.77,29.92,22.91,38.36-1.38,13.69-10.91,24.15-19.6,27.39A5.46,5.46,0,0,1,243.67,67Zm-3.45-54.08c-5.26,6.4-7.71,13-7.29,19.59.64,10.11,7.7,18.38,11.6,22.22a23.76,23.76,0,0,0,9.61-16.61C255.06,28.92,250.27,20.27,240.22,12.88Z"
                   id="path42" />
              </g>
            </g>
            <path
               d="M206,271.89s35.3-6.27-33.73-22.35l84.86,13.94S246.89,277.5,206,271.89Z"
               id="path48" />
            <path
               class="cls-7"
               d="M114.49,140.37a5.56,5.56,0,0,1-5-7.89,76.43,76.43,0,0,1,19.13-24.37,5.57,5.57,0,1,1,7.08,8.6,65.27,65.27,0,0,0-16.1,20.43A5.58,5.58,0,0,1,114.49,140.37Z"
               id="path50" />
            <g
               id="g62">
              <ellipse
                 class="cls-3"
                 cx="60.74"
                 cy="151.84"
                 rx="10.47"
                 ry="5.16"
                 id="ellipse52" />
              <ellipse
                 class="cls-3"
                 cx="294.28"
                 cy="218.92"
                 rx="5.16"
                 ry="10.47"
                 transform="translate(-54.67 331.87) rotate(-54.58)"
                 id="ellipse54" />
              <ellipse
                 class="cls-3"
                 cx="246.65"
                 cy="223.26"
                 rx="5.99"
                 ry="9.86"
                 transform="translate(-81.79 170.31) rotate(-32.99)"
                 id="ellipse56" />
              <ellipse
                 class="cls-3"
                 cx="101.51"
                 cy="180.88"
                 rx="8.91"
                 ry="5.99"
                 transform="translate(-82.12 84.44) rotate(-32.99)"
                 id="ellipse58" />
              <ellipse
                 class="cls-3"
                 cx="172.01"
                 cy="209.38"
                 rx="7.69"
                 ry="7.29"
                 transform="translate(-73.31 324.47) rotate(-75.73)"
                 id="ellipse60" />
            </g>
            <g
               id="g68">
              <line
                 class="cls-4"
                 x1="357.67"
                 y1="208.86"
                 x2="403.91"
                 y2="204.37"
                 id="line64" />
              <path
                 d="M357.67,214.43a5.57,5.57,0,0,1-.54-11.11l46.24-4.49a5.57,5.57,0,0,1,1.08,11.08l-46.24,4.49Z"
                 id="path66" />
            </g>
            <g
               id="g74">
              <line
                 class="cls-4"
                 x1="337.02"
                 y1="187.75"
                 x2="369.39"
                 y2="184.61"
                 id="line70" />
              <path
                 d="M337,193.32a5.57,5.57,0,0,1-.53-11.11l32.37-3.14a5.57,5.57,0,0,1,1.08,11.08l-32.37,3.14Z"
                 id="path72" />
            </g>
            <g
               id="g80">
              <line
                 class="cls-4"
                 x1="303.44"
                 y1="165.28"
                 x2="353.26"
                 y2="160.44"
                 id="line76" />
              <path
                 d="M303.44,170.85a5.57,5.57,0,0,1-.53-11.11l49.81-4.84A5.57,5.57,0,1,1,353.79,166L304,170.82A4.89,4.89,0,0,1,303.44,170.85Z"
                 id="path78" />
            </g>
            <g
               id="g96">
              <g
                 id="g86">
                <path
                   class="cls-8"
                   d="M162.46,144.63c4.6-4,12.3-1,13.88,4.09"
                   id="path82" />
                <path
                   d="M176.34,153.92a5.19,5.19,0,0,1-5-3.66,4,4,0,0,0-2.69-2.14,3,3,0,0,0-2.8.41,5.19,5.19,0,0,1-6.86-7.8,13.11,13.11,0,0,1,12.47-2.61,14.14,14.14,0,0,1,9.8,9.06,5.21,5.21,0,0,1-5,6.74Z"
                   id="path84" />
              </g>
              <g
                 id="g92">
                <path
                   class="cls-8"
                   d="M193.72,153.84c4.6-4.05,12.3-1,13.88,4.09"
                   id="path88" />
                <path
                   d="M207.6,163.13a5.19,5.19,0,0,1-5-3.66,4,4,0,0,0-2.69-2.14,3,3,0,0,0-2.8.41,5.19,5.19,0,0,1-6.86-7.8,13.14,13.14,0,0,1,12.47-2.61,14.12,14.12,0,0,1,9.8,9.06,5.21,5.21,0,0,1-5,6.74Z"
                   id="path90" />
              </g>
              <path
                 d="M182.29,177.58a17.9,17.9,0,0,1-5.27-.81,14.4,14.4,0,0,1-9.66-8.67,5.2,5.2,0,1,1,9.79-3.49,4.37,4.37,0,0,0,2.94,2.24,5.77,5.77,0,0,0,4.45-.18,5.2,5.2,0,0,1,6.11,8.41A14.29,14.29,0,0,1,182.29,177.58Z"
                 id="path94" />
            </g>
          </g>
          <g
             id="g118"
             style="fill:#ffffff">
            <path
               d="M450.19,164.45h25.3c.47,10.22,4.4,17,19,17,13,0,16.19-5.34,16.19-10,0-20.75-58.78-3.93-58.78-42.75,0-15.41,9.27-30.49,41.17-30.49s40.71,15.08,41.18,35.52H509.13c-.48-8.49-3-15.41-17.14-15.41-11.78,0-14.77,4.72-14.77,9,0,18.39,58.15,3,58.15,42.75,0,14.46-7.7,31.59-42.28,31.59C461.82,201.54,450.19,187.55,450.19,164.45Z"
               id="path100"
               style="fill:#ffffff" />
            <path
               d="M550.3,120h11l6,12.42c4.08-6.76,13.36-13.83,28.76-13.83,26.56,0,34.89,21.06,34.89,41.49,0,20.59-7.39,41.49-32.22,41.49-12.42,0-20.27-4.4-24.05-9.27v39.29H550.3Zm39.92,61.3c13.36,0,15.56-8.8,15.56-21.22,0-12.57-2.2-21.37-15.4-21.37-13.67,0-15.87,8.64-15.87,21.37C574.51,172.31,576.24,181.27,590.22,181.27Z"
               id="path102"
               style="fill:#ffffff" />
            <path
               d="M640,176.87c0-15.41,10.53-21.85,33-24.21l21.06-2.2c0-10.68-3.46-14.14-14.15-14.14-10.06,0-12.88,4.71-12.88,11.16H643.19c0-17.13,6.91-28.92,36.14-28.92,34.27,0,39.3,15.4,39.3,36.15v45.42h-11l-5.81-12.58c-5.5,9.12-14.15,14-28.45,14C654.5,201.54,640,193.68,640,176.87Zm38.35,7.38c11,0,15.87-6.44,15.72-17.76l-15.72,1.89c-9.74,1.1-12.73,3.77-12.73,7.54C665.66,180.8,669.43,184.25,678.39,184.25Z"
               id="path104"
               style="fill:#ffffff" />
            <path
               d="M728.84,160.05c0-21.06,8.64-41.49,40.86-41.49,25.78,0,38,13.36,38,34.57H783.06c-.94-10.37-4.71-14.14-13.83-14.14-12.57,0-16,7.54-16,20.9s3.14,21.22,16,21.22c9.43,0,12.89-4.56,13.83-14h24.68c0,21.22-11.79,34.42-37.57,34.42C737.33,201.54,728.84,181.11,728.84,160.05Z"
               id="path106"
               style="fill:#ffffff" />
            <path
               d="M816.22,160.05c0-20.75,8.18-41.49,41.18-41.49,30.8,0,38.51,20.9,38.51,42a52.21,52.21,0,0,1-.32,7.07H840.9c.16,10.69,5.18,16.66,15.87,16.66,9,0,12.73-3.77,13.68-8.33h25.61c-1.41,14.78-13.83,25.62-38.19,25.62C824.24,201.54,816.22,181.11,816.22,160.05Zm54.23-8.8c0-8.33-3.93-14.77-14.31-14.77-9.74,0-15.08,4.71-15.08,14.77Z"
               id="path108"
               style="fill:#ffffff" />
            <path
               d="M907.85,164.45h25.3c.47,10.22,4.4,17,19,17,13,0,16.19-5.34,16.19-10,0-20.75-58.78-3.93-58.78-42.75,0-15.41,9.27-30.49,41.18-30.49,31.74,0,40.7,15.08,41.17,35.52H966.79c-.48-8.49-3-15.41-17.13-15.41-11.79,0-14.78,4.72-14.78,9,0,18.39,58.15,3,58.15,42.75,0,14.46-7.7,31.59-42.27,31.59C919.48,201.54,907.85,187.55,907.85,164.45Z"
               id="path110"
               style="fill:#ffffff" />
            <path
               d="M1004.19,160.05c0-20.75,8.18-41.49,41.18-41.49,30.8,0,38.5,20.9,38.5,42a53.88,53.88,0,0,1-.31,7.07h-54.69c.15,10.69,5.18,16.66,15.87,16.66,9,0,12.73-3.77,13.67-8.33H1084c-1.41,14.78-13.83,25.62-38.19,25.62C1012.21,201.54,1004.19,181.11,1004.19,160.05Zm54.22-8.8c0-8.33-3.92-14.77-14.3-14.77-9.74,0-15.09,4.71-15.09,14.77Z"
               id="path112"
               style="fill:#ffffff" />
            <path
               d="M1093,160.05c0-20.75,8.17-41.49,41.18-41.49,30.8,0,38.5,20.9,38.5,42a53.88,53.88,0,0,1-.31,7.07h-54.7c.16,10.69,5.19,16.66,15.88,16.66,9,0,12.73-3.77,13.67-8.33h25.62c-1.42,14.78-13.83,25.62-38.19,25.62C1101,201.54,1093,181.11,1093,160.05Zm54.22-8.8c0-8.33-3.93-14.77-14.3-14.77-9.75,0-15.09,4.71-15.09,14.77Z"
               id="path114"
               style="fill:#ffffff" />
            <path
               d="M1182.41,159.89c0-20.59,7.08-41.33,32.22-41.33,12.42,0,20.28,4.24,23.74,9.11V89H1263V200.13h-11l-6-12.58c-4.25,6.45-13.52,14-29.08,14C1190.43,201.54,1182.41,180.32,1182.41,159.89ZM1223,181.27c13.52,0,15.88-8.65,15.88-21.38,0-12.26-1.73-21.37-15.72-21.37-13.36,0-15.72,8.8-15.72,21.37S1209.76,181.27,1223,181.27Z"
               id="path116"
               style="fill:#ffffff" />
          </g>
        </g>
      </g>
    </g>
  </g>
</svg>
