<svg xmlns="http://www.w3.org/2000/svg" viewBox="0 0 492.87 24.61"><defs><style>.cls-1{fill:#fff;}</style></defs><title>logo white@vector file</title><g id="Layer_2" data-name="Layer 2"><g id="Layer_1-2" data-name="Layer 1"><path class="cls-1" d="M364,24.61a1.57,1.57,0,0,1-.76-.2c-2.33-1.34-9.8-6.46-8.71-16.65a8.56,8.56,0,0,1,3-5.45,10.34,10.34,0,0,1,13,0,8.65,8.65,0,0,1,3,5.45c1.09,10.19-6.39,15.31-8.7,16.64h0A1.57,1.57,0,0,1,364,24.61Zm-.2-23.36c-3.56,0-7.59,2.5-8,6.64a15.5,15.5,0,0,0,8.08,15.43.27.27,0,0,0,.3,0h0a15.48,15.48,0,0,0,8.07-15.42h0c-.45-4.22-4.63-6.73-8.22-6.64h-.22Z"/><path class="cls-1" d="M371.42,11.69a5.3,5.3,0,0,1-5.29,5.09,5.36,5.36,0,0,1-1.46-.21A5.29,5.29,0,0,1,370,11.48,5.05,5.05,0,0,1,371.42,11.69Z"/><path class="cls-1" d="M356.53,11.69a5.29,5.29,0,0,0,5.29,5.09,5.36,5.36,0,0,0,1.46-.21A5.29,5.29,0,0,0,358,11.48,5,5,0,0,0,356.53,11.69Z"/><path class="cls-1" d="M364,19.78a2,2,0,0,1-1.81-1.35c0,.87.84,2.37,1.81,2.37s1.82-1.5,1.82-2.37A2,2,0,0,1,364,19.78Z"/><path class="cls-1" d="M19.52,24.56h-8a1.77,1.77,0,1,1,0-3.54h6.26L14,11.19c0-.07-2.7-6.84-2.73-6.91L8,12.11,3.41,23.46a1.75,1.75,0,0,1-1.65,1.11A1.76,1.76,0,0,1,.13,22.15L5.05,9.94a1.83,1.83,0,0,1,.06-.25L8,2.59a3.5,3.5,0,0,1,6.51,0L16.81,8.7a1.59,1.59,0,0,1,.13.22l4.78,12.43A2.36,2.36,0,0,1,19.52,24.56Z"/><path class="cls-1" d="M48.24,22.78a1.8,1.8,0,0,1-1.79,1.8H29.65a2.39,2.39,0,0,1-2.4-2.4V1.83a1.8,1.8,0,1,1,3.59,0V21H46.45A1.79,1.79,0,0,1,48.24,22.78Z"/><path class="cls-1" d="M57.1,2.16V22.81a1.77,1.77,0,1,1-3.53,0V2.16a1.77,1.77,0,1,1,3.53,0Z"/><path class="cls-1" d="M85.55,22.49a1.73,1.73,0,0,1-1.73,1.73H64.26a2.36,2.36,0,0,1-2.36-2.36V2.36A2.36,2.36,0,0,1,64.26,0H83.82a1.73,1.73,0,1,1,0,3.46H65.36v6.92H78.05a1.73,1.73,0,1,1,0,3.46H65.36v6.92H83.82A1.74,1.74,0,0,1,85.55,22.49Z"/><path class="cls-1" d="M114.85,2.16V22.79a1.76,1.76,0,0,1-1.76,1.77h-1.18a1.78,1.78,0,0,1-1.29-.55L98.48,10.28,93.83,5.34V22.8a1.77,1.77,0,0,1-3.54,0V2.13A1.77,1.77,0,0,1,92.06.36h1.18a1.8,1.8,0,0,1,1.29.56l6.27,6.66.06.06.16.18.65.69c.07.08.12.17.18.25l9.47,10.83V2.16a1.77,1.77,0,1,1,3.53,0Z"/><path class="cls-1" d="M158.37,3.9,139.45,4l0,6.73,17.78,0h.11A2.35,2.35,0,0,1,159.71,13l0,9.11a2.36,2.36,0,0,1-2.34,2.37l-20.1.09a1.77,1.77,0,0,1,0-3.54L156.2,21l0-6.76-16.7,0H138.3a2.36,2.36,0,0,1-2.36-2.35l0-9.09A2.34,2.34,0,0,1,138.25.46l20.1-.09a1.77,1.77,0,1,1,0,3.53Z"/><path class="cls-1" d="M188.53,22.49a1.73,1.73,0,0,1-1.73,1.73H167.24a2.36,2.36,0,0,1-2.36-2.36V2.36A2.36,2.36,0,0,1,167.24,0H186.8a1.73,1.73,0,0,1,0,3.46H168.34v6.92H181a1.73,1.73,0,0,1,0,3.46H168.34v6.92H186.8A1.74,1.74,0,0,1,188.53,22.49Z"/><path class="cls-1" d="M196.81,21h18.87a1.77,1.77,0,1,1,0,3.53H195.63a2.35,2.35,0,0,1-2.35-2.35V2.7A2.36,2.36,0,0,1,195.63.34h20.05a1.77,1.77,0,0,1,0,3.54H196.81Z"/><path class="cls-1" d="M247,12.17h0v.42a1.74,1.74,0,0,1-.49,1.2A3,3,0,0,1,244,15.17h-5.64l6.36,6.4a1.77,1.77,0,0,1-2.51,2.49l-8.84-8.89h-4.17l-3.42,0v7.6a1.77,1.77,0,0,1-3.54,0V3.4a3,3,0,0,1,3-3H244a3,3,0,0,1,3,3Zm-3.54-8.24H225.76v8.24h17.68Z"/><path class="cls-1" d="M275.4,22.49a1.73,1.73,0,0,1-1.73,1.73H254.11a2.36,2.36,0,0,1-2.36-2.36V2.36A2.36,2.36,0,0,1,254.11,0h19.56a1.73,1.73,0,0,1,0,3.46H255.21v6.92H267.9a1.73,1.73,0,1,1,0,3.46H255.21v6.92h18.46A1.74,1.74,0,0,1,275.4,22.49Z"/><path class="cls-1" d="M304.91,2.15a1.78,1.78,0,0,1-1.77,1.77h-9.43V22.8a1.77,1.77,0,0,1-3.54,0V3.92h-8.26a1.77,1.77,0,0,1,0-3.54h21.23A1.77,1.77,0,0,1,304.91,2.15Z"/><path class="cls-1" d="M348.43,3.9,329.52,4l0,6.73,17.78,0h.1A2.35,2.35,0,0,1,349.77,13l0,9.11a2.36,2.36,0,0,1-2.34,2.37l-20.1.09a1.77,1.77,0,0,1,0-3.54L346.26,21l0-6.76-16.7,0h-1.18A2.36,2.36,0,0,1,326,11.91l0-9.09A2.34,2.34,0,0,1,328.32.46L348.41.37a1.77,1.77,0,1,1,0,3.53Z"/><path class="cls-1" d="M381.58,21h18.87a1.77,1.77,0,1,1,0,3.53H380.4a2.35,2.35,0,0,1-2.35-2.35V2.7A2.36,2.36,0,0,1,380.4.34h20.05a1.77,1.77,0,1,1,0,3.54H381.58Z"/><path class="cls-1" d="M410.53,2.16V22.81a1.77,1.77,0,1,1-3.54,0V2.16a1.77,1.77,0,1,1,3.54,0Z"/><path class="cls-1" d="M439,22.49a1.73,1.73,0,0,1-1.73,1.73H417.68a2.35,2.35,0,0,1-2.35-2.36V2.36A2.35,2.35,0,0,1,417.68,0h19.56a1.73,1.73,0,1,1,0,3.46H418.79v6.92h12.68a1.73,1.73,0,0,1,0,3.46H418.79v6.92h18.45A1.74,1.74,0,0,1,439,22.49Z"/><path class="cls-1" d="M468.48,2.15a1.78,1.78,0,0,1-1.77,1.77h-9.43V22.8a1.77,1.77,0,0,1-3.54,0V3.92h-8.25a1.77,1.77,0,1,1,0-3.54h21.22A1.77,1.77,0,0,1,468.48,2.15Z"/><path class="cls-1" d="M492.48,3.24l-7.65,8.6v11a1.77,1.77,0,0,1-1.77,1.77h0a1.77,1.77,0,0,1-1.77-1.77V12h-.08l-7.57-8.76A1.77,1.77,0,1,1,476.4,1l6.66,8,6.66-8a1.77,1.77,0,1,1,2.76,2.21Z"/></g></g></svg>