<svg width="1316" height="54" viewBox="0 0 1316 54" fill="none" xmlns="http://www.w3.org/2000/svg">
    <rect x="1006" y="1" width="309" height="52" rx="26" stroke="#25B190" stroke-width="2"/>
    <path d="M1039.99 23.48C1039.84 23.48 1039.71 23.432 1039.6 23.336C1039.51 23.224 1039.46 23.096 1039.46 22.952V22.784C1039.46 22.512 1039.36 22.288 1039.17 22.112C1038.99 21.92 1038.77 21.824 1038.5 21.824H1033.82C1033.55 21.824 1033.32 21.92 1033.15 22.112C1032.97 22.288 1032.88 22.512 1032.88 22.784V30.752C1032.88 31.024 1032.97 31.256 1033.15 31.448C1033.32 31.624 1033.55 31.712 1033.82 31.712H1038.5C1038.77 31.712 1038.99 31.624 1039.17 31.448C1039.36 31.256 1039.46 31.024 1039.46 30.752V30.584C1039.46 30.44 1039.51 30.32 1039.6 30.224C1039.71 30.112 1039.84 30.056 1039.99 30.056H1042.22C1042.36 30.056 1042.48 30.112 1042.58 30.224C1042.69 30.32 1042.75 30.44 1042.75 30.584V30.752C1042.75 31.344 1042.63 31.896 1042.41 32.408C1042.19 32.92 1041.88 33.368 1041.5 33.752C1041.11 34.136 1040.67 34.44 1040.15 34.664C1039.64 34.888 1039.09 35 1038.5 35H1033.82C1033.24 35 1032.69 34.888 1032.16 34.664C1031.65 34.44 1031.2 34.136 1030.82 33.752C1030.43 33.368 1030.13 32.92 1029.91 32.408C1029.68 31.896 1029.57 31.344 1029.57 30.752V22.784C1029.57 22.192 1029.68 21.64 1029.91 21.128C1030.13 20.616 1030.43 20.168 1030.82 19.784C1031.2 19.4 1031.65 19.096 1032.16 18.872C1032.69 18.648 1033.24 18.536 1033.82 18.536H1038.5C1039.09 18.536 1039.64 18.648 1040.15 18.872C1040.67 19.096 1041.11 19.4 1041.5 19.784C1041.88 20.168 1042.19 20.616 1042.41 21.128C1042.63 21.64 1042.75 22.192 1042.75 22.784V22.952C1042.75 23.096 1042.69 23.224 1042.58 23.336C1042.48 23.432 1042.36 23.48 1042.22 23.48H1039.99ZM1057.63 18.56C1058.22 18.56 1058.78 18.672 1059.29 18.896C1059.8 19.12 1060.25 19.424 1060.63 19.808C1061.02 20.192 1061.32 20.64 1061.54 21.152C1061.77 21.664 1061.88 22.208 1061.88 22.784V30.776C1061.88 31.352 1061.77 31.896 1061.54 32.408C1061.32 32.92 1061.02 33.368 1060.63 33.752C1060.25 34.136 1059.8 34.44 1059.29 34.664C1058.78 34.888 1058.22 35 1057.63 35H1052.95C1052.36 35 1051.81 34.888 1051.3 34.664C1050.78 34.44 1050.34 34.136 1049.95 33.752C1049.57 33.368 1049.26 32.92 1049.04 32.408C1048.82 31.896 1048.7 31.352 1048.7 30.776V22.784C1048.7 22.208 1048.82 21.664 1049.04 21.152C1049.26 20.64 1049.57 20.192 1049.95 19.808C1050.34 19.424 1050.78 19.12 1051.3 18.896C1051.81 18.672 1052.36 18.56 1052.95 18.56H1057.63ZM1058.59 22.784C1058.59 22.512 1058.5 22.288 1058.3 22.112C1058.13 21.936 1057.9 21.848 1057.63 21.848H1052.95C1052.68 21.848 1052.45 21.936 1052.26 22.112C1052.08 22.288 1051.99 22.512 1051.99 22.784V30.776C1051.99 31.048 1052.08 31.272 1052.26 31.448C1052.45 31.624 1052.68 31.712 1052.95 31.712H1057.63C1057.9 31.712 1058.13 31.624 1058.3 31.448C1058.5 31.272 1058.59 31.048 1058.59 30.776V22.784ZM1077.7 19.064C1077.7 18.92 1077.75 18.8 1077.85 18.704C1077.96 18.592 1078.09 18.536 1078.23 18.536H1080.49C1080.63 18.536 1080.75 18.592 1080.85 18.704C1080.96 18.8 1081.02 18.92 1081.02 19.064V34.472C1081.02 34.616 1080.96 34.744 1080.85 34.856C1080.75 34.952 1080.63 35 1080.49 35H1078.23C1078.09 35 1077.96 34.952 1077.85 34.856C1077.75 34.744 1077.7 34.616 1077.7 34.472V28.856L1071.13 22.952V34.472C1071.13 34.616 1071.07 34.744 1070.96 34.856C1070.86 34.952 1070.74 35 1070.6 35H1068.37C1068.22 35 1068.1 34.952 1067.98 34.856C1067.89 34.744 1067.84 34.616 1067.84 34.472V19.064C1067.84 18.92 1067.89 18.8 1067.98 18.704C1068.1 18.592 1068.22 18.536 1068.37 18.536H1070.6C1070.74 18.536 1070.9 18.576 1071.08 18.656C1071.26 18.72 1071.4 18.8 1071.51 18.896L1077.7 24.44V19.064ZM1096.84 19.064C1096.84 18.92 1096.89 18.8 1096.98 18.704C1097.09 18.592 1097.22 18.536 1097.37 18.536H1099.62C1099.77 18.536 1099.89 18.592 1099.98 18.704C1100.09 18.8 1100.15 18.92 1100.15 19.064V34.472C1100.15 34.616 1100.09 34.744 1099.98 34.856C1099.89 34.952 1099.77 35 1099.62 35H1097.37C1097.22 35 1097.09 34.952 1096.98 34.856C1096.89 34.744 1096.84 34.616 1096.84 34.472V28.856L1090.26 22.952V34.472C1090.26 34.616 1090.21 34.744 1090.09 34.856C1090 34.952 1089.88 35 1089.73 35H1087.5C1087.36 35 1087.23 34.952 1087.12 34.856C1087.02 34.744 1086.97 34.616 1086.97 34.472V19.064C1086.97 18.92 1087.02 18.8 1087.12 18.704C1087.23 18.592 1087.36 18.536 1087.5 18.536H1089.73C1089.88 18.536 1090.04 18.576 1090.21 18.656C1090.39 18.72 1090.53 18.8 1090.65 18.896L1096.84 24.44V19.064ZM1119.02 21.32C1119.02 21.464 1118.97 21.584 1118.88 21.68C1118.78 21.776 1118.66 21.824 1118.52 21.824H1109.64V25.136H1117.68C1117.82 25.136 1117.94 25.184 1118.04 25.28C1118.15 25.376 1118.2 25.496 1118.2 25.64V27.896C1118.2 28.04 1118.15 28.168 1118.04 28.28C1117.94 28.376 1117.82 28.424 1117.68 28.424H1109.64V31.712H1118.52C1118.66 31.712 1118.78 31.768 1118.88 31.88C1118.97 31.976 1119.02 32.096 1119.02 32.24V34.472C1119.02 34.616 1118.97 34.744 1118.88 34.856C1118.78 34.952 1118.66 35 1118.52 35H1106.85C1106.71 35 1106.59 34.952 1106.49 34.856C1106.4 34.744 1106.35 34.616 1106.35 34.472V19.064C1106.35 18.92 1106.4 18.8 1106.49 18.704C1106.59 18.592 1106.71 18.536 1106.85 18.536H1118.52C1118.66 18.536 1118.78 18.592 1118.88 18.704C1118.97 18.8 1119.02 18.92 1119.02 19.064V21.32ZM1135.63 23.48C1135.49 23.48 1135.36 23.432 1135.25 23.336C1135.15 23.224 1135.11 23.096 1135.11 22.952V22.784C1135.11 22.512 1135.01 22.288 1134.82 22.112C1134.64 21.92 1134.42 21.824 1134.15 21.824H1129.47C1129.19 21.824 1128.97 21.92 1128.79 22.112C1128.62 22.288 1128.53 22.512 1128.53 22.784V30.752C1128.53 31.024 1128.62 31.256 1128.79 31.448C1128.97 31.624 1129.19 31.712 1129.47 31.712H1134.15C1134.42 31.712 1134.64 31.624 1134.82 31.448C1135.01 31.256 1135.11 31.024 1135.11 30.752V30.584C1135.11 30.44 1135.15 30.32 1135.25 30.224C1135.36 30.112 1135.49 30.056 1135.63 30.056H1137.87C1138.01 30.056 1138.13 30.112 1138.23 30.224C1138.34 30.32 1138.39 30.44 1138.39 30.584V30.752C1138.39 31.344 1138.28 31.896 1138.06 32.408C1137.83 32.92 1137.53 33.368 1137.15 33.752C1136.76 34.136 1136.31 34.44 1135.8 34.664C1135.29 34.888 1134.74 35 1134.15 35H1129.47C1128.89 35 1128.34 34.888 1127.81 34.664C1127.3 34.44 1126.85 34.136 1126.47 33.752C1126.08 33.368 1125.78 32.92 1125.55 32.408C1125.33 31.896 1125.22 31.344 1125.22 30.752V22.784C1125.22 22.192 1125.33 21.64 1125.55 21.128C1125.78 20.616 1126.08 20.168 1126.47 19.784C1126.85 19.4 1127.3 19.096 1127.81 18.872C1128.34 18.648 1128.89 18.536 1129.47 18.536H1134.15C1134.74 18.536 1135.29 18.648 1135.8 18.872C1136.31 19.096 1136.76 19.4 1137.15 19.784C1137.53 20.168 1137.83 20.616 1138.06 21.128C1138.28 21.64 1138.39 22.192 1138.39 22.784V22.952C1138.39 23.096 1138.34 23.224 1138.23 23.336C1138.13 23.432 1138.01 23.48 1137.87 23.48H1135.63ZM1157 18.536C1157.15 18.536 1157.27 18.592 1157.36 18.704C1157.47 18.8 1157.53 18.92 1157.53 19.064V21.32C1157.53 21.464 1157.47 21.584 1157.36 21.68C1157.27 21.776 1157.15 21.824 1157 21.824H1152.59V34.472C1152.59 34.616 1152.53 34.744 1152.42 34.856C1152.32 34.952 1152.2 35 1152.06 35H1149.8C1149.66 35 1149.54 34.952 1149.44 34.856C1149.35 34.744 1149.3 34.616 1149.3 34.472V21.824H1144.88C1144.74 21.824 1144.61 21.776 1144.5 21.68C1144.4 21.584 1144.35 21.464 1144.35 21.32V19.064C1144.35 18.92 1144.4 18.8 1144.5 18.704C1144.61 18.592 1144.74 18.536 1144.88 18.536H1157ZM1195.51 18.536C1195.65 18.536 1195.77 18.584 1195.87 18.68C1195.97 18.792 1196.01 18.92 1195.99 19.064L1195.03 34.496C1195.01 34.64 1194.96 34.76 1194.86 34.856C1194.75 34.952 1194.62 35 1194.48 35H1192.27C1192.13 35 1191.98 34.952 1191.84 34.856C1191.68 34.776 1191.56 34.672 1191.48 34.544L1189.17 30.56L1186.87 34.544C1186.79 34.672 1186.68 34.776 1186.53 34.856C1186.37 34.952 1186.22 35 1186.08 35H1183.89C1183.77 35 1183.65 34.952 1183.53 34.856C1183.42 34.76 1183.36 34.64 1183.34 34.496L1182.38 19.064C1182.37 18.92 1182.41 18.792 1182.5 18.68C1182.6 18.584 1182.72 18.536 1182.86 18.536H1185.12C1185.26 18.536 1185.39 18.584 1185.5 18.68C1185.6 18.792 1185.65 18.92 1185.67 19.064L1186.25 29.936L1187.85 27.392C1187.93 27.264 1188.05 27.16 1188.21 27.08C1188.36 26.984 1188.5 26.936 1188.65 26.936H1189.7C1189.85 26.936 1190 26.984 1190.16 27.08C1190.3 27.16 1190.41 27.264 1190.49 27.392L1192.13 29.96L1192.7 19.064C1192.72 18.92 1192.78 18.792 1192.89 18.68C1192.99 18.584 1193.11 18.536 1193.25 18.536H1195.51ZM1210.57 18.536C1210.71 18.536 1210.85 18.584 1210.97 18.68C1211.12 18.776 1211.21 18.888 1211.26 19.016L1214.72 27.608C1214.77 27.736 1214.81 27.904 1214.84 28.112C1214.89 28.304 1214.91 28.472 1214.91 28.616V34.472C1214.91 34.616 1214.85 34.744 1214.74 34.856C1214.65 34.952 1214.53 35 1214.38 35H1212.13C1211.98 35 1211.85 34.952 1211.74 34.856C1211.65 34.744 1211.6 34.616 1211.6 34.472V31.712H1205.02V34.472C1205.02 34.616 1204.97 34.744 1204.85 34.856C1204.76 34.952 1204.64 35 1204.49 35H1202.26C1202.12 35 1201.99 34.952 1201.88 34.856C1201.78 34.744 1201.73 34.616 1201.73 34.472V28.616C1201.73 28.472 1201.75 28.304 1201.78 28.112C1201.83 27.904 1201.88 27.736 1201.93 27.608L1205.36 19.016C1205.42 18.888 1205.52 18.776 1205.65 18.68C1205.79 18.584 1205.93 18.536 1206.08 18.536H1210.57ZM1205.14 28.424H1211.48L1208.84 21.824H1207.78L1205.14 28.424ZM1233.32 35H1222.09C1221.95 35 1221.82 34.952 1221.71 34.856C1221.61 34.744 1221.56 34.616 1221.56 34.472V19.064C1221.56 18.92 1221.61 18.8 1221.71 18.704C1221.82 18.592 1221.95 18.536 1222.09 18.536H1224.32C1224.47 18.536 1224.59 18.592 1224.68 18.704C1224.8 18.8 1224.85 18.92 1224.85 19.064V31.712H1233.32C1233.47 31.712 1233.59 31.768 1233.68 31.88C1233.78 31.976 1233.83 32.096 1233.83 32.24V34.472C1233.83 34.616 1233.78 34.744 1233.68 34.856C1233.59 34.952 1233.47 35 1233.32 35ZM1252.46 35H1241.23C1241.08 35 1240.95 34.952 1240.84 34.856C1240.75 34.744 1240.7 34.616 1240.7 34.472V19.064C1240.7 18.92 1240.75 18.8 1240.84 18.704C1240.95 18.592 1241.08 18.536 1241.23 18.536H1243.46C1243.6 18.536 1243.72 18.592 1243.82 18.704C1243.93 18.8 1243.99 18.92 1243.99 19.064V31.712H1252.46C1252.6 31.712 1252.72 31.768 1252.82 31.88C1252.91 31.976 1252.96 32.096 1252.96 32.24V34.472C1252.96 34.616 1252.91 34.744 1252.82 34.856C1252.72 34.952 1252.6 35 1252.46 35ZM1272.05 21.32C1272.05 21.464 1272 21.584 1271.9 21.68C1271.81 21.776 1271.69 21.824 1271.54 21.824H1262.66V25.136H1270.7C1270.85 25.136 1270.97 25.184 1271.06 25.28C1271.18 25.376 1271.23 25.496 1271.23 25.64V27.896C1271.23 28.04 1271.18 28.168 1271.06 28.28C1270.97 28.376 1270.85 28.424 1270.7 28.424H1262.66V31.712H1271.54C1271.69 31.712 1271.81 31.768 1271.9 31.88C1272 31.976 1272.05 32.096 1272.05 32.24V34.472C1272.05 34.616 1272 34.744 1271.9 34.856C1271.81 34.952 1271.69 35 1271.54 35H1259.88C1259.74 35 1259.62 34.952 1259.52 34.856C1259.42 34.744 1259.38 34.616 1259.38 34.472V19.064C1259.38 18.92 1259.42 18.8 1259.52 18.704C1259.62 18.592 1259.74 18.536 1259.88 18.536H1271.54C1271.69 18.536 1271.81 18.592 1271.9 18.704C1272 18.8 1272.05 18.92 1272.05 19.064V21.32ZM1290.9 18.536C1291.04 18.536 1291.16 18.592 1291.26 18.704C1291.37 18.8 1291.42 18.92 1291.42 19.064V21.32C1291.42 21.464 1291.37 21.584 1291.26 21.68C1291.16 21.776 1291.04 21.824 1290.9 21.824H1286.48V34.472C1286.48 34.616 1286.42 34.744 1286.31 34.856C1286.22 34.952 1286.1 35 1285.95 35H1283.7C1283.55 35 1283.43 34.952 1283.34 34.856C1283.24 34.744 1283.19 34.616 1283.19 34.472V21.824H1278.78C1278.63 21.824 1278.5 21.776 1278.39 21.68C1278.3 21.584 1278.25 21.464 1278.25 21.32V19.064C1278.25 18.92 1278.3 18.8 1278.39 18.704C1278.5 18.592 1278.63 18.536 1278.78 18.536H1290.9Z" fill="white"/>
    <path d="M12.4595 42.9992C12.1133 42.9977 11.773 42.9081 11.4709 42.739C8.43987 40.9959 -1.27753 34.3355 0.140408 21.0797C0.50608 18.3107 1.89901 15.7802 4.04298 13.99C6.43645 12.0554 9.42097 11 12.4986 11C15.5762 11 18.5607 12.0554 20.9541 13.99C23.0892 15.7875 24.4801 18.3143 24.8567 21.0797C26.2747 34.3355 16.5442 40.9959 13.5392 42.726C13.2116 42.9153 12.8378 43.0099 12.4595 42.9992V42.9992ZM12.1994 12.6111C7.5683 12.6111 2.32584 15.8633 1.79248 21.2488C1.33197 25.2625 2.0878 29.322 3.96196 32.901C5.83612 36.4799 8.74219 39.4134 12.3034 41.3211C12.3612 41.3597 12.4291 41.3803 12.4986 41.3803C12.568 41.3803 12.6359 41.3597 12.6937 41.3211V41.3211C16.2527 39.4151 19.1566 36.4834 21.0286 32.9065C22.9006 29.3295 23.6542 25.2724 23.1916 21.2618V21.2618C22.6062 15.7722 17.1686 12.5071 12.4986 12.6241H12.2124L12.1994 12.6111Z" fill="white"/>
    <path d="M22.1118 26.1924C22.0413 27.9709 21.2857 29.6533 20.0031 30.8874C18.7205 32.1215 17.0102 32.8118 15.2303 32.8137C14.5876 32.8106 13.9485 32.7187 13.3311 32.5406C13.3987 30.7519 14.1605 29.0599 15.455 27.8237C16.7495 26.5875 18.4747 25.9044 20.2646 25.9192C20.8902 25.9218 21.5123 26.0138 22.1118 26.1924Z" fill="white"/>
    <path d="M2.74219 26.1923C2.80952 27.9719 3.56415 29.6561 4.84747 30.8909C6.13078 32.1257 7.84284 32.8149 9.62374 32.8137C10.2664 32.8106 10.9055 32.7186 11.523 32.5405C11.4557 30.7631 10.7029 29.0808 9.42239 27.8463C8.14186 26.6119 6.4331 25.9212 4.65445 25.9191C4.00699 25.9145 3.36246 26.0066 2.74219 26.1923Z" fill="white"/>
    <path d="M12.4595 36.7161C11.9358 36.6946 11.4309 36.5155 11.0107 36.2021C10.5906 35.8887 10.2749 35.4558 10.105 34.96C10.105 36.0917 11.1977 38.043 12.4595 38.043C13.7214 38.043 14.8271 36.0917 14.8271 34.96C14.6564 35.4578 14.3387 35.8922 13.916 36.2057C13.4933 36.5192 12.9855 36.6972 12.4595 36.7161Z" fill="white"/>
    <path d="M895 17.1622C898.204 17.1622 898.584 17.1744 899.849 17.2321C901.019 17.2855 901.654 17.481 902.077 17.6453C902.637 17.863 903.037 18.1231 903.457 18.543C903.877 18.9629 904.137 19.3627 904.355 19.9227C904.519 20.3456 904.714 20.981 904.768 22.151C904.826 23.4164 904.838 23.7959 904.838 27C904.838 30.2042 904.826 30.5837 904.768 31.849C904.714 33.019 904.519 33.6544 904.355 34.0773C904.137 34.6374 903.877 35.0372 903.457 35.4571C903.037 35.877 902.637 36.137 902.077 36.3547C901.654 36.519 901.019 36.7145 899.849 36.7679C898.584 36.8256 898.204 36.8378 895 36.8378C891.796 36.8378 891.416 36.8256 890.151 36.7679C888.981 36.7145 888.346 36.519 887.923 36.3547C887.363 36.137 886.963 35.877 886.543 35.4571C886.123 35.0372 885.863 34.6374 885.645 34.0773C885.481 33.6544 885.285 33.019 885.232 31.8491C885.174 30.5837 885.162 30.2042 885.162 27C885.162 23.7959 885.174 23.4164 885.232 22.151C885.285 20.981 885.481 20.3456 885.645 19.9227C885.863 19.3627 886.123 18.9629 886.543 18.543C886.963 18.1231 887.363 17.863 887.923 17.6453C888.346 17.481 888.981 17.2855 890.151 17.2321C891.416 17.1744 891.796 17.1622 895 17.1622ZM895 15C891.741 15 891.332 15.0138 890.052 15.0722C888.775 15.1305 887.903 15.3333 887.139 15.63C886.35 15.9367 885.681 16.347 885.014 17.0141C884.347 17.6812 883.937 18.3504 883.63 19.1395C883.333 19.9029 883.13 20.7752 883.072 22.0525C883.014 23.3323 883 23.741 883 27C883 30.2591 883.014 30.6677 883.072 31.9476C883.13 33.2249 883.333 34.0972 883.63 34.8605C883.937 35.6496 884.347 36.3188 885.014 36.9859C885.681 37.6531 886.35 38.0634 887.139 38.37C887.903 38.6667 888.775 38.8695 890.052 38.9278C891.332 38.9862 891.741 39 895 39C898.259 39 898.668 38.9862 899.948 38.9278C901.225 38.8695 902.097 38.6667 902.86 38.37C903.65 38.0634 904.319 37.6531 904.986 36.9859C905.653 36.3188 906.063 35.6496 906.37 34.8605C906.667 34.0972 906.869 33.2249 906.928 31.9476C906.986 30.6677 907 30.2591 907 27C907 23.741 906.986 23.3323 906.928 22.0525C906.869 20.7752 906.667 19.9029 906.37 19.1395C906.063 18.3504 905.653 17.6812 904.986 17.0141C904.319 16.347 903.65 15.9367 902.86 15.63C902.097 15.3333 901.225 15.1305 899.948 15.0722C898.668 15.0138 898.259 15 895 15ZM895 20.8378C891.597 20.8378 888.838 23.5968 888.838 27C888.838 30.4033 891.597 33.1622 895 33.1622C898.403 33.1622 901.162 30.4033 901.162 27C901.162 23.5968 898.403 20.8378 895 20.8378ZM895 31C892.791 31 891 29.2091 891 27C891 24.7909 892.791 23 895 23C897.209 23 899 24.7909 899 27C899 29.2091 897.209 31 895 31ZM902.846 20.5944C902.846 21.3897 902.201 22.0344 901.406 22.0344C900.61 22.0344 899.966 21.3897 899.966 20.5944C899.966 19.7991 900.61 19.1544 901.406 19.1544C902.201 19.1544 902.846 19.7991 902.846 20.5944Z" fill="white"/>
    <path fill-rule="evenodd" clip-rule="evenodd" d="M963 19.3094C962.116 19.6997 961.167 19.9646 960.171 20.0828C961.188 19.4741 961.969 18.5074 962.334 17.358C961.382 17.9238 960.329 18.3319 959.208 18.5539C958.31 17.5979 957.031 17 955.613 17C952.896 17 950.69 19.2056 950.69 21.9232C950.69 22.3099 950.733 22.6858 950.819 23.0439C946.727 22.8398 943.1 20.8777 940.672 17.8987C940.25 18.6255 940.006 19.4705 940.006 20.3728C940.006 22.0807 940.876 23.5881 942.197 24.4689C941.392 24.4438 940.633 24.2218 939.967 23.8531C939.967 23.8745 939.967 23.8924 939.967 23.9139C939.967 26.2985 941.664 28.2893 943.916 28.7404C943.504 28.8514 943.067 28.9123 942.62 28.9123C942.301 28.9123 941.993 28.8801 941.693 28.8228C942.319 30.7777 944.138 32.2027 946.29 32.2421C944.603 33.5633 942.484 34.351 940.174 34.351C939.777 34.351 939.387 34.326 939 34.283C941.177 35.6794 943.766 36.4957 946.548 36.4957C955.603 36.4957 960.555 28.9946 960.555 22.4889C960.555 22.2741 960.551 22.0628 960.54 21.8516C961.503 21.1569 962.338 20.2905 962.996 19.3023L963 19.3094Z" fill="white"/>
    <path d="M847.317 19.5164C845.787 18.8145 844.147 18.2974 842.432 18.0012C842.401 17.9955 842.369 18.0098 842.353 18.0384C842.142 18.4136 841.909 18.9031 841.745 19.2878C839.9 19.0117 838.065 19.0117 836.258 19.2878C836.095 18.8945 835.852 18.4136 835.641 18.0384C835.624 18.0108 835.593 17.9965 835.562 18.0012C833.848 18.2965 832.208 18.8136 830.677 19.5164C830.664 19.5221 830.652 19.5317 830.645 19.544C827.533 24.1924 826.681 28.7265 827.099 33.2044C827.101 33.2263 827.113 33.2473 827.13 33.2606C829.183 34.7681 831.172 35.6833 833.123 36.2899C833.155 36.2995 833.188 36.2881 833.207 36.2623C833.669 35.6319 834.081 34.9672 834.433 34.2681C834.454 34.2272 834.434 34.1786 834.392 34.1624C833.739 33.9148 833.118 33.6129 832.52 33.2701C832.472 33.2425 832.469 33.1748 832.512 33.1425C832.638 33.0482 832.764 32.9501 832.884 32.8511C832.906 32.833 832.936 32.8291 832.962 32.8406C836.889 34.6338 841.142 34.6338 845.023 32.8406C845.049 32.8282 845.079 32.832 845.101 32.8501C845.222 32.9491 845.347 33.0482 845.474 33.1425C845.518 33.1748 845.515 33.2425 845.468 33.2701C844.87 33.6196 844.248 33.9148 843.595 34.1615C843.552 34.1777 843.533 34.2272 843.554 34.2681C843.914 34.9662 844.326 35.6309 844.779 36.2614C844.798 36.2881 844.832 36.2995 844.863 36.2899C846.824 35.6833 848.813 34.7681 850.865 33.2606C850.883 33.2473 850.895 33.2272 850.897 33.2053C851.397 28.0284 850.058 23.5315 847.348 19.545C847.342 19.5317 847.33 19.5221 847.317 19.5164ZM835.02 30.4778C833.837 30.4778 832.863 29.3922 832.863 28.0589C832.863 26.7256 833.819 25.64 835.02 25.64C836.231 25.64 837.196 26.7351 837.177 28.0589C837.177 29.3922 836.221 30.4778 835.02 30.4778ZM842.995 30.4778C841.812 30.4778 840.838 29.3922 840.838 28.0589C840.838 26.7256 841.793 25.64 842.995 25.64C844.206 25.64 845.171 26.7351 845.152 28.0589C845.152 29.3922 844.206 30.4778 842.995 30.4778Z" fill="white"/>
</svg>