<svg width="24" height="20" viewBox="0 0 24 20" fill="none" xmlns="http://www.w3.org/2000/svg">
    <path fill-rule="evenodd" clip-rule="evenodd" d="M24 2.30941C23.1156 2.69969 22.1668 2.96464 21.1714 3.0828C22.1883 2.47412 22.9688 1.50738 23.334 0.358049C22.3816 0.923765 21.329 1.33194 20.2083 1.55393C19.3096 0.597941 18.0313 0 16.6135 0C13.8959 0 11.6903 2.20558 11.6903 4.92317C11.6903 5.30986 11.7333 5.68581 11.8192 6.04386C7.72669 5.83977 4.09966 3.87767 1.67209 0.898702C1.24959 1.62554 1.00612 2.47054 1.00612 3.37282C1.00612 5.08071 1.87617 6.58809 3.19737 7.46889C2.39176 7.44383 1.6327 7.22184 0.966731 6.85305C0.966731 6.87453 0.966731 6.89244 0.966731 6.91392C0.966731 9.29852 2.66388 11.2893 4.91601 11.7404C4.50425 11.8514 4.06743 11.9123 3.61987 11.9123C3.30121 11.9123 2.99329 11.8801 2.69253 11.8228C3.31911 13.7777 5.138 15.2027 7.28987 15.2421C5.60346 16.5633 3.48381 17.351 1.1744 17.351C0.776966 17.351 0.386693 17.326 0 17.283C2.17694 18.6794 4.76563 19.4957 7.54767 19.4957C16.6027 19.4957 21.5545 11.9946 21.5545 5.48889C21.5545 5.27406 21.5509 5.06281 21.5402 4.85156C22.5034 4.15694 23.3376 3.29047 23.9964 2.30225L24 2.30941Z" fill="white"/>
</svg>